<svg xmlns="http://www.w3.org/2000/svg" xmlns:xlink="http://www.w3.org/1999/xlink" viewBox="0,0,255.99301,255.99301" width="32px" height="32px" fill-rule="nonzero"><g fill="#fcce68" fill-rule="nonzero" stroke="none" stroke-width="1" stroke-linecap="butt" stroke-linejoin="miter" stroke-miterlimit="10" stroke-dasharray="" stroke-dashoffset="0" font-family="none" font-weight="none" font-size="none" text-anchor="none" style="mix-blend-mode: normal"><g transform="scale(8,8)"><path d="M12.80078,3c-1.7638,0 -3.17116,2.08328 -3.68555,5.25977l-3.31445,0.93945l-2.40039,17l15.59961,2.80078l9.59961,-1.90039l-3.09961,-20l-2.80078,-0.40039l-2.09961,-1.69922l-1.16797,0.33203c-0.73573,-1.48821 -1.77219,-2.33203 -2.93164,-2.33203c-0.4983,0 -1.2037,0.14539 -1.88672,0.82227c-0.53374,-0.52639 -1.14025,-0.82227 -1.8125,-0.82227zM12.90039,5c0.26557,0 0.84311,0.47349 1.25,1.83008l-2.875,0.81641c0.45198,-1.80354 1.22649,-2.64648 1.625,-2.64648zM16.5,5c0.19148,0 0.54878,0.28542 0.91016,0.9043l-1.37891,0.39258c-0.10865,-0.31642 -0.22623,-0.61407 -0.35352,-0.88867l0.12305,0.0918c0.2,-0.3 0.49922,-0.5 0.69922,-0.5zM19.22656,7.35938l-1.18164,19.46094l-12.3457,-2.32031l1.90039,-13.69922zM21.18945,7.99609l0.61133,0.50391l1.89844,0.30078l2.60156,16.79883l-6.25195,1.19922zM14.5,11.90039c-3,0 -4.5,1.9 -4.5,4c0,2.5 2.40039,2.5 2.40039,4c0,0.4 -0.30039,0.90039 -0.90039,0.90039c-1,0 -2.09961,-1 -2.09961,-1l-0.59961,1.89844c0,0 1.09883,1.30078 3.29883,1.30078c1.8,0 3.09961,-1.4 3.09961,-3.5c0,-2.6 -3,-3.09922 -3,-4.19922c0,-0.2 0.10039,-1 1.40039,-1c0.9,0 1.59961,0.39844 1.59961,0.39844l0.80078,-2.5c0,0 -0.6,-0.29883 -1.5,-0.29883z"></path></g></g></svg>